<?xml version="1.0" encoding="utf-8"?>
<!-- Generator: Adobe Illustrator 23.0.3, SVG Export Plug-In . SVG Version: 6.00 Build 0)  -->
<svg version="1.1" id="Слой_1" xmlns="http://www.w3.org/2000/svg" xmlns:xlink="http://www.w3.org/1999/xlink" x="0px" y="0px"
	 viewBox="0 0 513.3 202.9" style="enable-background:new 0 0 513.3 202.9;" xml:space="preserve">
<style type="text/css">
	.st0{clip-path:url(#SVGID_2_);}
	.st1{fill:url(#SVGID_3_);}
	.st2{fill:url(#SVGID_4_);}
	.st3{fill:#FFFFFF;}
</style>
<g>
	<g>
		<defs>
			<path id="SVGID_1_" d="M375.5,0H220.6H105.7C81.7,0,60.2,15,52,37.6L1.2,177c-4.6,12.6,4.8,26,18.2,26h127.3h154.9h106.1
				c24,0,45.5-15,53.7-37.6L512.1,26c4.6-12.6-4.8-26-18.2-26H375.5z"/>
		</defs>
		<clipPath id="SVGID_2_">
			<use xlink:href="#SVGID_1_"  style="overflow:visible;"/>
		</clipPath>
		<g class="st0">
			
				<linearGradient id="SVGID_3_" gradientUnits="userSpaceOnUse" x1="256.5823" y1="1497.229" x2="256.5823" y2="1699.0271" gradientTransform="matrix(1 0 0 1 0 -1496)">
				<stop  offset="0" style="stop-color:#FF0600;stop-opacity:0"/>
				<stop  offset="1" style="stop-color:#930700"/>
			</linearGradient>
			<polygon class="st1" points="375.4,0 220.5,0 65.6,0 -8.3,203 146.6,203 301.5,203 447.6,203 521.5,0 			"/>
			
				<linearGradient id="SVGID_4_" gradientUnits="userSpaceOnUse" x1="256.6324" y1="1508.489" x2="256.6324" y2="2038.3889" gradientTransform="matrix(1 0 0 1 0 -1496)">
				<stop  offset="0" style="stop-color:#FF0600;stop-opacity:0"/>
				<stop  offset="0.3672" style="stop-color:#930700"/>
			</linearGradient>
			<polygon class="st2" points="521.6,0 519.5,0 445.6,202.9 443.4,202.9 517.3,0 515.2,0 441.3,202.9 439.1,202.9 513,0 510.9,0 
				437,202.9 434.8,202.9 508.7,0 506.6,0 432.7,202.9 430.5,202.9 504.4,0 502.3,0 428.4,202.9 426.2,202.9 500.1,0 498,0 
				424.1,202.9 421.9,202.9 495.8,0 493.7,0 419.8,202.9 417.6,202.9 491.5,0 489.4,0 415.5,202.9 413.3,202.9 487.2,0 485.1,0 
				411.2,202.9 409,202.9 482.9,0 480.8,0 406.9,202.9 404.7,202.9 478.6,0 476.5,0 402.6,202.9 400.4,202.9 474.3,0 472.2,0 
				398.3,202.9 396.1,202.9 470,0 467.9,0 394,202.9 391.8,202.9 465.7,0 463.6,0 389.7,202.9 387.5,202.9 461.4,0 459.3,0 
				385.4,202.9 383.2,202.9 457.1,0 455,0 381.1,202.9 378.9,202.9 452.8,0 450.7,0 376.8,202.9 374.6,202.9 448.5,0 446.4,0 
				372.5,202.9 370.3,202.9 444.2,0 442.1,0 368.2,202.9 366,202.9 439.9,0 437.8,0 363.9,202.9 361.7,202.9 435.6,0 433.4,0 
				359.5,202.9 357.4,202.9 431.3,0 429.2,0 355.3,202.9 353.1,202.9 427,0 424.9,0 351,202.9 348.8,202.9 422.7,0 420.5,0 
				346.6,202.9 344.5,202.9 418.4,0 416.2,0 342.3,202.9 340.2,202.9 414.1,0 411.9,0 338,202.9 335.9,202.9 409.8,0 407.6,0 
				333.7,202.9 331.6,202.9 405.5,0 403.3,0 329.4,202.9 327.3,202.9 401.2,0 399,0 325.1,202.9 323,202.9 396.9,0 394.7,0 
				320.8,202.9 318.7,202.9 392.6,0 390.4,0 316.5,202.9 314.4,202.9 388.3,0 386.1,0 312.2,202.9 310.1,202.9 384,0 381.8,0 
				307.9,202.9 305.8,202.9 379.7,0 377.5,0 303.6,202.9 301.5,202.9 375.4,0 373.2,0 299.3,202.9 297.2,202.9 371.1,0 368.9,0 
				295,202.9 292.9,202.9 366.8,0 364.6,0 290.7,202.9 288.6,202.9 362.5,0 360.3,0 286.4,202.9 284.3,202.9 358.2,0 356,0 
				282.1,202.9 280,202.9 353.9,0 351.7,0 277.8,202.9 275.6,202.9 349.5,0 347.4,0 273.5,202.9 271.3,202.9 345.2,0 343.1,0 
				269.2,202.9 267.1,202.9 341,0 338.8,0 264.9,202.9 262.8,202.9 336.7,0 334.5,0 260.6,202.9 258.4,202.9 332.3,0 330.2,0 
				256.3,202.9 254.1,202.9 328,0 325.9,0 252,202.9 249.8,202.9 323.7,0 321.6,0 247.7,202.9 245.5,202.9 319.4,0 317.3,0 
				243.4,202.9 241.2,202.9 315.1,0 313,0 239.1,202.9 236.9,202.9 310.8,0 308.7,0 234.8,202.9 232.6,202.9 306.5,0 304.4,0 
				230.5,202.9 228.3,202.9 302.2,0 300.1,0 226.2,202.9 224,202.9 297.9,0 295.8,0 221.9,202.9 219.7,202.9 293.6,0 291.5,0 
				217.6,202.9 215.4,202.9 289.3,0 287.2,0 213.3,202.9 211.1,202.9 285,0 282.9,0 209,202.9 206.8,202.9 280.7,0 278.6,0 
				204.7,202.9 202.5,202.9 276.4,0 274.3,0 200.4,202.9 198.2,202.9 272.1,0 270,0 196.1,202.9 193.9,202.9 267.8,0 265.7,0 
				191.8,202.9 189.6,202.9 263.5,0 261.4,0 187.5,202.9 185.3,202.9 259.2,0 257.1,0 183.2,202.9 181,202.9 254.9,0 252.8,0 
				178.9,202.9 176.7,202.9 250.6,0 248.4,0 174.5,202.9 172.4,202.9 246.3,0 244.1,0 170.2,202.9 168.1,202.9 242,0 239.8,0 
				166,202.9 163.8,202.9 237.7,0 235.5,0 161.7,202.9 159.5,202.9 233.4,0 231.2,0 157.3,202.9 155.2,202.9 229.1,0 226.9,0 
				153,202.9 150.9,202.9 224.8,0 222.6,0 148.7,202.9 146.6,202.9 220.5,0 218.3,0 144.4,202.9 142.3,202.9 216.2,0 214,0 
				140.1,202.9 138,202.9 211.9,0 209.7,0 135.8,202.9 133.7,202.9 207.6,0 205.4,0 131.5,202.9 129.4,202.9 203.3,0 201.1,0 
				127.2,202.9 125.1,202.9 199,0 196.8,0 122.9,202.9 120.8,202.9 194.7,0 192.5,0 118.6,202.9 116.5,202.9 190.4,0 188.2,0 
				114.3,202.9 112.2,202.9 186.1,0 183.9,0 110,202.9 107.9,202.9 181.8,0 179.6,0 105.7,202.9 103.6,202.9 177.5,0 175.3,0 
				101.4,202.9 99.3,202.9 173.2,0 171,0 97.1,202.9 95,202.9 168.8,0 166.7,0 92.8,202.9 90.7,202.9 164.5,0 162.4,0 88.5,202.9 
				86.3,202.9 160.2,0 158.1,0 84.2,202.9 82,202.9 155.9,0 153.8,0 79.9,202.9 77.8,202.9 151.6,0 149.5,0 75.6,202.9 73.5,202.9 
				147.3,0 145.2,0 71.3,202.9 69.1,202.9 143,0 140.9,0 67,202.9 64.8,202.9 138.7,0 136.6,0 62.7,202.9 60.5,202.9 134.4,0 
				132.3,0 58.4,202.9 56.2,202.9 130.1,0 128,0 54.1,202.9 51.9,202.9 125.8,0 123.7,0 49.8,202.9 47.6,202.9 121.5,0 119.4,0 
				45.5,202.9 43.3,202.9 117.2,0 115.1,0 41.2,202.9 39,202.9 112.9,0 110.8,0 36.9,202.9 34.7,202.9 108.6,0 106.5,0 32.6,202.9 
				30.4,202.9 104.3,0 102.2,0 28.3,202.9 26.1,202.9 100,0 97.9,0 24,202.9 21.8,202.9 95.7,0 93.6,0 19.7,202.9 17.5,202.9 
				91.4,0 89.2,0 15.4,202.9 13.2,202.9 87.1,0 85,0 11.1,202.9 8.9,202.9 82.8,0 80.7,0 6.8,202.9 4.6,202.9 78.5,0 76.3,0 
				2.5,202.9 0.3,202.9 74.2,0 72,0 -1.8,203 -4,203 69.9,0 67.7,0 -6.1,203 -8.3,203 -8.3,203 -6.1,203 -4,203 -1.8,203 0.3,203 
				2.5,203 4.6,203 6.8,203 8.9,203 11.1,203 13.2,203 15.4,203 17.5,203 19.7,203 21.8,203 24,203 26.1,203 28.3,203 30.4,203 
				32.6,203 34.7,203 36.9,203 39,203 41.2,203 43.3,203 45.5,203 47.6,203 49.8,203 51.9,203 54.1,203 56.2,203 58.4,203 60.5,203 
				62.7,203 64.8,203 67,203 69.1,203 71.3,203 73.5,203 75.6,203 77.8,203 79.9,203 82,203 84.2,203 86.3,203 88.5,203 90.7,203 
				92.8,203 95,203 97.1,203 99.3,203 101.4,203 103.6,203 105.7,203 107.9,203 110,203 112.2,203 114.3,203 116.5,203 118.6,203 
				120.8,203 122.9,203 125.1,203 127.2,203 129.4,203 131.5,203 133.7,203 135.8,203 138,203 140.1,203 142.3,203 144.4,203 
				146.6,203 148.7,203 150.9,203 153,203 155.2,203 157.3,203 159.5,203 161.7,203 163.8,203 166,203 168.1,203 170.2,203 
				172.4,203 174.5,203 176.7,203 178.9,203 181,203 183.2,203 185.3,203 187.5,203 189.6,203 191.8,203 193.9,203 196.1,203 
				198.2,203 200.4,203 202.5,203 204.7,203 206.8,203 209,203 211.1,203 213.3,203 215.4,203 217.6,203 219.7,203 221.9,203 
				224,203 226.2,203 228.3,203 230.5,203 232.6,203 234.8,203 236.9,203 239.1,203 241.2,203 243.4,203 245.5,203 247.7,203 
				249.8,203 252,203 254.1,203 256.3,203 258.4,203 260.6,203 262.8,203 264.9,203 267.1,203 269.2,203 271.3,203 273.5,203 
				275.6,203 277.8,203 280,203 282.1,203 284.3,203 286.4,203 288.6,203 290.7,203 292.9,203 295,203 297.2,203 299.3,203 
				301.5,203 303.6,203 305.8,203 307.9,203 310.1,203 312.2,203 314.4,203 316.5,203 318.7,203 320.8,203 323,203 325.1,203 
				327.3,203 329.4,203 331.6,203 333.7,203 335.9,203 338,203 340.2,203 342.3,203 344.5,203 346.6,203 348.8,203 351,203 
				353.1,203 355.3,203 357.4,203 359.5,203 361.7,203 363.9,203 366,203 368.2,203 370.3,203 372.5,203 374.6,203 376.8,203 
				378.9,203 381.1,203 383.2,203 385.4,203 387.5,203 389.7,203 391.8,203 394,203 396.1,203 398.3,203 400.4,203 402.6,203 
				404.7,203 406.9,203 409,203 411.2,203 413.3,203 415.5,203 417.6,203 419.8,203 421.9,203 424.1,203 426.2,203 428.4,203 
				430.5,203 432.7,203 434.8,203 437,203 439.1,203 441.3,203 443.4,203 445.6,203 447.7,203 447.7,202.9 447.7,202.9 			"/>
		</g>
	</g>
</g>
<g>
	<path class="st3" d="M326.4,97.1l6.9-6.9c0.4-0.4,0.6-0.9,0.6-1.5c0-0.6-0.2-1.1-0.7-1.5c-0.4-0.4-1-0.6-1.5-0.6
		c-0.5,0-1.1,0.2-1.5,0.6l-6.8,6.8c-0.4,0.4-0.7,1-0.7,1.5c0,0.6,0.2,1.1,0.6,1.5c0.4,0.4,0.9,0.6,1.5,0.7
		C325.4,97.8,326,97.5,326.4,97.1z"/>
	<path class="st3" d="M326.4,107.6c-0.4-0.4-0.9-0.6-1.5-0.6c0,0,0,0,0,0c-0.6,0-1.1,0.2-1.5,0.7c-0.8,0.8-0.8,2.1,0,3l6.8,6.8
		c0.4,0.4,0.9,0.6,1.5,0.6c0.6,0,1.1-0.2,1.5-0.7c0.8-0.8,0.8-2.1,0-3L326.4,107.6z"/>
	<path class="st3" d="M337,124.3l6.8,6.8c0.4,0.4,0.9,0.6,1.5,0.6c0.6,0,1.1-0.2,1.5-0.7c0.8-0.8,0.8-2.1,0-3l-6.8-6.8
		c-0.4-0.4-0.9-0.6-1.5-0.6c0,0,0,0,0,0c-0.6,0-1.1,0.2-1.5,0.7C336.2,122.1,336.2,123.5,337,124.3z"/>
	<path class="st3" d="M353.6,134.8c-0.4-0.4-0.9-0.6-1.5-0.6c0,0,0,0,0,0c-0.6,0-1.1,0.2-1.5,0.7c-0.8,0.8-0.8,2.1,0,3l6.8,6.8
		c0.8,0.8,2.2,0.8,3-0.1c0.8-0.8,0.8-2.1,0-3L353.6,134.8z"/>
	<path class="st3" d="M337,80.4c-0.9,0.8-0.9,2.2-0.1,3.1c0.4,0.4,0.9,0.6,1.5,0.7c0.6,0,1.1-0.2,1.5-0.6l6.9-6.9
		c0.8-0.8,0.8-2.2,0-3c-0.8-0.8-2.2-0.8-3,0v0L337,80.4z"/>
	<path class="st3" d="M357.4,60l-6.8,6.8c-0.9,0.8-0.9,2.2-0.1,3.1c0.4,0.4,0.9,0.6,1.5,0.7c0.6,0,1.1-0.2,1.5-0.6l6.9-6.9
		c0.4-0.4,0.6-0.9,0.6-1.5c0-0.6-0.2-1.1-0.7-1.5c-0.4-0.4-1-0.6-1.5-0.6S357.8,59.6,357.4,60z"/>
	<path class="st3" d="M341.9,100.2h-6.8c-1.2,0-2.1,1-2.1,2.2s1,2.1,2.1,2.1h6.8c1.2,0,2.2-1,2.2-2.1S343.1,100.2,341.9,100.2z"/>
	<path class="st3" d="M358.9,100.2h-6.8c-1.2,0-2.1,1-2.1,2.2s1,2.1,2.1,2.1h6.8c1.2,0,2.1-1,2.1-2.1S360.1,100.2,358.9,100.2z"/>
	<path class="st3" d="M314.7,86.6h-13.6c-1.2,0-2.1,1-2.1,2.1V90H248l-46-46c-1.7-1.7-3.9-2.6-6.3-2.6h0c-2.4,0-4.6,0.9-6.3,2.6
		l-34.6,34.6c-3.5,3.5-3.5,9.2,0,12.7l46.2,46.2c0.4,0.4,0.9,0.6,1.5,0.6h21.6v25.5c0,4.9,4,9,8.9,9h6.8c4.9,0,9-4,9-9v-48.9H265
		v14.9c0,8.7,7.1,15.7,15.8,15.8c1.2,0,2.1-1,2.1-2.2v-28.5H299v1.3c0,1.2,1,2.1,2.1,2.1h13.6c1.2,0,2.2-1,2.2-2.1V88.8
		C316.9,87.6,315.9,86.6,314.7,86.6z M157.9,88.2c-0.9-0.9-1.4-2-1.4-3.3c0-1.2,0.5-2.4,1.3-3.2l0,0l34.6-34.6
		c0.9-0.9,2-1.4,3.3-1.4c0,0,0,0,0,0c1.2,0,2.4,0.5,3.3,1.4l3.9,3.9l-41.2,41.2L157.9,88.2z M226.3,90c-1.2,0-2.1,1-2.1,2.2v41.6
		h-20.8l-38.7-38.7L205.9,54l36,36H226.3z M299,110.4h-18.3c-1.2,0-2.1,1-2.1,2.1v28.4l-1.7-0.6c-4.6-1.6-7.6-6-7.6-10.8v-17
		c0-1.2-1-2.1-2.1-2.1h-20.4c-1.2,0-2.1,1-2.1,2.1v51c0,2.6-2.1,4.7-4.6,4.7h-6.8c-2.6,0-4.6-2.1-4.6-4.7V94.3H299V110.4z
		 M312.6,113.8h-9.3V90.9h9.3V113.8z"/>
</g>
</svg>
