<?xml version="1.0" encoding="utf-8"?>
<!-- Generator: Adobe Illustrator 23.0.3, SVG Export Plug-In . SVG Version: 6.00 Build 0)  -->
<svg version="1.1" id="Слой_1" xmlns="http://www.w3.org/2000/svg" xmlns:xlink="http://www.w3.org/1999/xlink" x="0px" y="0px"
	 viewBox="0 0 40 40" style="enable-background:new 0 0 40 40;" xml:space="preserve">
<style type="text/css">
	.st0{display:none;}
	.st1{display:inline;fill:#FFFFFF;}
	.st2{fill:#FF1C0E;}
</style>
<g class="st0">
	<path class="st1" d="M29.2,0H10.8C4.9,0,0,4.9,0,10.8v18.3C0,35.1,4.9,40,10.8,40h18.3c6,0,10.8-4.9,10.8-10.8V10.8
		C40,4.9,35.1,0,29.2,0z M20.6,33.6c-0.2,0.1-0.4,0.2-0.6,0.2s-0.4-0.1-0.6-0.2c-0.4-0.4-9.8-8.8-9.8-16.9c0-5.7,4.6-10.4,10.3-10.4
		s10.3,4.7,10.3,10.4C30.3,24.8,21,33.2,20.6,33.6z"/>
	<circle class="st1" cx="20" cy="16.6" r="5.7"/>
</g>
<g>
	<path class="st2" d="M29.2,0H10.8C4.9,0,0,4.9,0,10.8v18.3C0,35.1,4.9,40,10.8,40h18.3c6,0,10.8-4.9,10.8-10.8V10.8
		C40,4.9,35.1,0,29.2,0z M20,30.9C14,30.9,9.1,26,9.1,20S14,9.1,20,9.1S30.9,14,30.9,20S26,30.9,20,30.9z M31.2,11.6
		c-1.8,0-3.2-1.4-3.2-3.2s1.4-3.2,3.2-3.2s3.2,1.4,3.2,3.2S33,11.6,31.2,11.6z"/>
	<path class="st2" d="M20,12.8c-4,0-7.2,3.2-7.2,7.2c0,4,3.2,7.2,7.2,7.2c4,0,7.2-3.2,7.2-7.2C27.2,16,24,12.8,20,12.8z"/>
</g>
</svg>
