<?xml version="1.0" encoding="utf-8"?>
<!-- Generator: Adobe Illustrator 23.0.3, SVG Export Plug-In . SVG Version: 6.00 Build 0)  -->
<svg version="1.1" id="Слой_1" xmlns="http://www.w3.org/2000/svg" xmlns:xlink="http://www.w3.org/1999/xlink" x="0px" y="0px"
	 viewBox="0 0 40 40" style="enable-background:new 0 0 40 40;" xml:space="preserve">
<style type="text/css">
	.st0{display:none;}
	.st1{display:inline;fill:#FFFFFF;}
	.st2{fill:#FF1C0E;}
</style>
<g class="st0">
	<path class="st1" d="M29.2,0H10.8C4.9,0,0,4.9,0,10.8v18.3C0,35.1,4.9,40,10.8,40h18.3c6,0,10.8-4.9,10.8-10.8V10.8
		C40,4.9,35.1,0,29.2,0z M20.6,33.6c-0.2,0.1-0.4,0.2-0.6,0.2s-0.4-0.1-0.6-0.2c-0.4-0.4-9.8-8.8-9.8-16.9c0-5.7,4.6-10.4,10.3-10.4
		s10.3,4.7,10.3,10.4C30.3,24.8,21,33.2,20.6,33.6z"/>
	<circle class="st1" cx="20" cy="16.6" r="5.7"/>
</g>
<g>
	<path class="st2" d="M10.3,10.3c-1.8,1.9-2.5,4.7-2.5,8.1c-0.1,3.4-0.4,10,5.6,11.7c0,0,0,4.9,0,5.3c0,0.6,0.3,0.7,0.7,0.4
		c1-1,4.1-4.9,4.1-4.9c4.2,0.3,7.5-0.6,7.8-0.7c0.8-0.3,5.4-0.7,6.1-7.1c0-0.3,1.3-9.7-2.4-13C26.6,7.2,14.5,6.3,10.3,10.3z
		 M27.1,25.7L27.1,25.7c-0.6,1.2-1.8,2.5-3.1,2.1l0,0c-1.3-0.4-4.2-1.9-6.1-3.5c-4-3.3-5.2-7.6-5.9-8.9c-0.4-1.3,0.8-2.5,2-3.2h0
		c0.5-0.3,1.1-0.2,1.4,0.2c0.3,0.5,1,1.1,2,2.8c0.4,0.7,0.1,1.4-0.2,1.6l-0.7,0.6c-0.4,0.3-0.3,0.9-0.3,0.9s1.1,4.2,5,5.2
		c0,0,0.5,0.1,0.8-0.3l0.6-0.7c0.3-0.4,0.9-0.6,1.6-0.2c0.9,0.5,2,1.3,2.7,2C27.3,24.6,27.4,25.1,27.1,25.7z M20.4,13.9
		c-0.5,0-0.5-0.8,0.1-0.8c3.5,0.3,5.3,2.7,5.2,5.7c0,0.5-0.8,0.5-0.8,0h0C25,16.2,23.4,14.1,20.4,13.9z M23.8,18.1
		c0,0.5-0.7,0.6-0.8,0c-0.1-1.4-0.7-2-1.9-2.1c-0.5,0-0.5-0.8,0-0.8C22.7,15.3,23.7,16.3,23.8,18.1z M27,19.6c0-5-3.3-7.8-7.2-7.8
		c-0.5,0-0.5-0.8,0-0.8c4.4,0,7.9,3.2,8,8.6h0C27.8,20.1,27,20.2,27,19.6z"/>
	<path class="st2" d="M29.2,0H10.8C4.9,0,0,4.9,0,10.8v18.3C0,35.1,4.9,40,10.8,40h18.3c6,0,10.8-4.9,10.8-10.8V10.8
		C40,4.9,35.1,0,29.2,0z M34.2,23.7c-0.9,7.7-6.5,8.4-7.5,8.8c-0.4,0.1-4.2,1.1-9.1,0.7c-2.9,3.5-3.4,4.1-4.3,3.8
		c-0.8-0.3-0.8-1.5-0.8-1.5l0-3.2h0c-7.2-2.1-7.1-9.8-7-13.9c0.1-4.1,0.9-7.4,3-9.7c4.9-4.6,18.6-4,22.6-0.2l0,0
		C33.7,10.7,35.1,15.7,34.2,23.7z"/>
</g>
</svg>
