<?xml version="1.0" encoding="utf-8"?>
<!-- Generator: Adobe Illustrator 23.0.3, SVG Export Plug-In . SVG Version: 6.00 Build 0)  -->
<svg version="1.1" id="Слой_1" xmlns="http://www.w3.org/2000/svg" xmlns:xlink="http://www.w3.org/1999/xlink" x="0px" y="0px"
	 viewBox="0 0 40 40" style="enable-background:new 0 0 40 40;" xml:space="preserve">
<style type="text/css">
	.st0{display:none;}
	.st1{display:inline;fill:#FFFFFF;}
	.st2{fill:#FF1C0E;}
</style>
<g class="st0">
	<path class="st1" d="M29.2,0H10.8C4.9,0,0,4.9,0,10.8v18.3C0,35.1,4.9,40,10.8,40h18.3c6,0,10.8-4.9,10.8-10.8V10.8
		C40,4.9,35.1,0,29.2,0z M20.6,33.6c-0.2,0.1-0.4,0.2-0.6,0.2s-0.4-0.1-0.6-0.2c-0.4-0.4-9.8-8.8-9.8-16.9c0-5.7,4.6-10.4,10.3-10.4
		s10.3,4.7,10.3,10.4C30.3,24.8,21,33.2,20.6,33.6z"/>
	<circle class="st1" cx="20" cy="16.6" r="5.7"/>
</g>
<g>
	<path class="st2" d="M29.2,0H10.8C4.9,0,0,4.9,0,10.8v18.3C0,35.1,4.9,40,10.8,40h18.3c6,0,10.8-4.9,10.8-10.8V10.8
		C40,4.9,35.1,0,29.2,0z M20.1,34.5L20.1,34.5c-2.5,0-5-0.6-7.2-1.8l-8,2.1L7.1,27c-1.3-2.3-2-4.9-2-7.5c0-8.3,6.8-15.1,15.1-15.1
		c4,0,7.8,1.6,10.6,4.4c2.8,2.8,4.4,6.6,4.4,10.6C35.2,27.8,28.4,34.5,20.1,34.5z"/>
	<path class="st2" d="M20.2,7C13.3,7,7.6,12.6,7.6,19.5c0,2.4,0.7,4.7,1.9,6.7l0.3,0.5l-1.3,4.6l4.7-1.2l0.5,0.3
		c1.9,1.1,4.1,1.7,6.4,1.7h0c6.9,0,12.5-5.6,12.5-12.5c0-3.3-1.3-6.5-3.7-8.9C26.6,8.3,23.5,7,20.2,7z M27.5,24.9
		c-0.3,0.9-1.8,1.7-2.5,1.8c-0.6,0.1-1.5,0.1-2.4-0.1c-0.5-0.2-1.2-0.4-2.1-0.8c-3.8-1.6-6.2-5.4-6.4-5.7s-1.5-2-1.5-3.9
		c0-1.9,1-2.8,1.3-3.1c0.3-0.4,0.8-0.5,1-0.5c0.3,0,0.5,0,0.7,0c0.2,0,0.5-0.1,0.8,0.6c0.3,0.8,1.1,2.6,1.2,2.8
		c0.1,0.2,0.2,0.4,0,0.7c-0.1,0.3-0.5,0.8-0.9,1.3c-0.2,0.2-0.4,0.4-0.2,0.8c0.2,0.4,1,1.6,2.1,2.6c1.4,1.3,2.6,1.7,3,1.9
		c0.4,0.2,0.6,0.2,0.8-0.1c0.2-0.3,0.9-1.1,1.2-1.5c0.3-0.4,0.5-0.3,0.8-0.2c0.3,0.1,2.2,1,2.6,1.2s0.6,0.3,0.7,0.4
		C27.8,23.2,27.8,24,27.5,24.9z"/>
</g>
</svg>
