<?xml version="1.0" encoding="utf-8"?>
<!-- Generator: Adobe Illustrator 23.0.3, SVG Export Plug-In . SVG Version: 6.00 Build 0)  -->
<svg version="1.1" id="Слой_1" xmlns="http://www.w3.org/2000/svg" xmlns:xlink="http://www.w3.org/1999/xlink" x="0px" y="0px"
	 viewBox="0 0 529.9 203" style="enable-background:new 0 0 529.9 203;" xml:space="preserve">
<style type="text/css">
	.st0{clip-path:url(#SVGID_2_);}
	.st1{fill:url(#SVGID_3_);}
	.st2{fill:url(#SVGID_4_);}
</style>
<g>
	<defs>
		<path id="SVGID_1_" d="M383.8,0H228.9H114c-24,0-45.5,15-53.7,37.6L9.5,177c-4.6,12.6,4.8,26,18.2,26H155h154.9h106.1
			c24,0,45.5-15,53.7-37.6L520.4,26c4.6-12.6-4.8-26-18.2-26H383.8z"/>
	</defs>
	<clipPath id="SVGID_2_">
		<use xlink:href="#SVGID_1_"  style="overflow:visible;"/>
	</clipPath>
	<g class="st0">
		
			<linearGradient id="SVGID_3_" gradientUnits="userSpaceOnUse" x1="264.9" y1="203.5583" x2="264.9" y2="1.7603" gradientTransform="matrix(1 0 0 -1 0 204.7874)">
			<stop  offset="0" style="stop-color:#FF0600;stop-opacity:0"/>
			<stop  offset="1" style="stop-color:#930700"/>
		</linearGradient>
		<polygon class="st1" points="383.7,0 228.8,0 73.9,0 0,203 154.9,203 309.8,203 455.9,203 529.8,0 		"/>
		
			<linearGradient id="SVGID_4_" gradientUnits="userSpaceOnUse" x1="264.95" y1="192.2984" x2="264.95" y2="-337.6016" gradientTransform="matrix(1 0 0 -1 0 204.7874)">
			<stop  offset="0" style="stop-color:#FF0600;stop-opacity:0"/>
			<stop  offset="0.3672" style="stop-color:#930700"/>
		</linearGradient>
		<polygon class="st2" points="529.9,0 527.8,0 453.9,202.9 451.7,202.9 525.6,0 523.5,0 449.6,202.9 447.4,202.9 521.3,0 519.2,0 
			445.3,202.9 443.1,202.9 517,0 514.9,0 441,202.9 438.8,202.9 512.7,0 510.6,0 436.7,202.9 434.5,202.9 508.4,0 506.3,0 
			432.4,202.9 430.2,202.9 504.1,0 502,0 428.1,202.9 425.9,202.9 499.8,0 497.7,0 423.8,202.9 421.6,202.9 495.5,0 493.4,0 
			419.5,202.9 417.3,202.9 491.2,0 489.1,0 415.2,202.9 413,202.9 486.9,0 484.8,0 410.9,202.9 408.7,202.9 482.6,0 480.5,0 
			406.6,202.9 404.4,202.9 478.3,0 476.2,0 402.3,202.9 400.1,202.9 474,0 471.9,0 398,202.9 395.8,202.9 469.7,0 467.6,0 
			393.7,202.9 391.5,202.9 465.4,0 463.3,0 389.4,202.9 387.2,202.9 461.1,0 459,0 385.1,202.9 382.9,202.9 456.8,0 454.7,0 
			380.8,202.9 378.6,202.9 452.5,0 450.4,0 376.5,202.9 374.3,202.9 448.2,0 446.1,0 372.2,202.9 370,202.9 443.9,0 441.7,0 
			367.8,202.9 365.7,202.9 439.6,0 437.5,0 363.6,202.9 361.4,202.9 435.3,0 433.2,0 359.3,202.9 357.1,202.9 431,0 428.8,0 
			354.9,202.9 352.8,202.9 426.7,0 424.5,0 350.6,202.9 348.5,202.9 422.4,0 420.2,0 346.3,202.9 344.2,202.9 418.1,0 415.9,0 
			342,202.9 339.9,202.9 413.8,0 411.6,0 337.7,202.9 335.6,202.9 409.5,0 407.3,0 333.4,202.9 331.3,202.9 405.2,0 403,0 
			329.1,202.9 327,202.9 400.9,0 398.7,0 324.8,202.9 322.7,202.9 396.6,0 394.4,0 320.5,202.9 318.4,202.9 392.3,0 390.1,0 
			316.2,202.9 314.1,202.9 388,0 385.8,0 311.9,202.9 309.8,202.9 383.7,0 381.5,0 307.6,202.9 305.5,202.9 379.4,0 377.2,0 
			303.3,202.9 301.2,202.9 375.1,0 372.9,0 299,202.9 296.9,202.9 370.8,0 368.6,0 294.7,202.9 292.6,202.9 366.5,0 364.3,0 
			290.4,202.9 288.3,202.9 362.2,0 360,0 286.1,202.9 283.9,202.9 357.8,0 355.7,0 281.8,202.9 279.6,202.9 353.5,0 351.4,0 
			277.5,202.9 275.4,202.9 349.3,0 347.1,0 273.2,202.9 271.1,202.9 345,0 342.8,0 268.9,202.9 266.7,202.9 340.6,0 338.5,0 
			264.6,202.9 262.4,202.9 336.3,0 334.2,0 260.3,202.9 258.1,202.9 332,0 329.9,0 256,202.9 253.8,202.9 327.7,0 325.6,0 
			251.7,202.9 249.5,202.9 323.4,0 321.3,0 247.4,202.9 245.2,202.9 319.1,0 317,0 243.1,202.9 240.9,202.9 314.8,0 312.7,0 
			238.8,202.9 236.6,202.9 310.5,0 308.4,0 234.5,202.9 232.3,202.9 306.2,0 304.1,0 230.2,202.9 228,202.9 301.9,0 299.8,0 
			225.9,202.9 223.7,202.9 297.6,0 295.5,0 221.6,202.9 219.4,202.9 293.3,0 291.2,0 217.3,202.9 215.1,202.9 289,0 286.9,0 
			213,202.9 210.8,202.9 284.7,0 282.6,0 208.7,202.9 206.5,202.9 280.4,0 278.3,0 204.4,202.9 202.2,202.9 276.1,0 274,0 
			200.1,202.9 197.9,202.9 271.8,0 269.7,0 195.8,202.9 193.6,202.9 267.5,0 265.4,0 191.5,202.9 189.3,202.9 263.2,0 261.1,0 
			187.2,202.9 185,202.9 258.9,0 256.7,0 182.8,202.9 180.7,202.9 254.6,0 252.4,0 178.5,202.9 176.4,202.9 250.3,0 248.1,0 
			174.3,202.9 172.1,202.9 246,0 243.8,0 170,202.9 167.8,202.9 241.7,0 239.5,0 165.6,202.9 163.5,202.9 237.4,0 235.2,0 
			161.3,202.9 159.2,202.9 233.1,0 230.9,0 157,202.9 154.9,202.9 228.8,0 226.6,0 152.7,202.9 150.6,202.9 224.5,0 222.3,0 
			148.4,202.9 146.3,202.9 220.2,0 218,0 144.1,202.9 142,202.9 215.9,0 213.7,0 139.8,202.9 137.7,202.9 211.6,0 209.4,0 
			135.5,202.9 133.4,202.9 207.3,0 205.1,0 131.2,202.9 129.1,202.9 203,0 200.8,0 126.9,202.9 124.8,202.9 198.7,0 196.5,0 
			122.6,202.9 120.5,202.9 194.4,0 192.2,0 118.3,202.9 116.2,202.9 190.1,0 187.9,0 114,202.9 111.9,202.9 185.8,0 183.6,0 
			109.7,202.9 107.6,202.9 181.5,0 179.3,0 105.4,202.9 103.3,202.9 177.1,0 175,0 101.1,202.9 99,202.9 172.8,0 170.7,0 
			96.8,202.9 94.6,202.9 168.5,0 166.4,0 92.5,202.9 90.3,202.9 164.2,0 162.1,0 88.2,202.9 86.1,202.9 159.9,0 157.8,0 83.9,202.9 
			81.8,202.9 155.6,0 153.5,0 79.6,202.9 77.4,202.9 151.3,0 149.2,0 75.3,202.9 73.1,202.9 147,0 144.9,0 71,202.9 68.8,202.9 
			142.7,0 140.6,0 66.7,202.9 64.5,202.9 138.4,0 136.3,0 62.4,202.9 60.2,202.9 134.1,0 132,0 58.1,202.9 55.9,202.9 129.8,0 
			127.7,0 53.8,202.9 51.6,202.9 125.5,0 123.4,0 49.5,202.9 47.3,202.9 121.2,0 119.1,0 45.2,202.9 43,202.9 116.9,0 114.8,0 
			40.9,202.9 38.7,202.9 112.6,0 110.5,0 36.6,202.9 34.4,202.9 108.3,0 106.2,0 32.3,202.9 30.1,202.9 104,0 101.9,0 28,202.9 
			25.8,202.9 99.7,0 97.5,0 23.7,202.9 21.5,202.9 95.4,0 93.3,0 19.4,202.9 17.2,202.9 91.1,0 89,0 15.1,202.9 12.9,202.9 86.8,0 
			84.6,0 10.8,202.9 8.6,202.9 82.5,0 80.3,0 6.5,203 4.3,203 78.2,0 76,0 2.2,203 0,203 0,203 2.2,203 4.3,203 6.5,203 8.6,203 
			10.8,203 12.9,203 15.1,203 17.2,203 19.4,203 21.5,203 23.7,203 25.8,203 28,203 30.1,203 32.3,203 34.4,203 36.6,203 38.7,203 
			40.9,203 43,203 45.2,203 47.3,203 49.5,203 51.6,203 53.8,203 55.9,203 58.1,203 60.2,203 62.4,203 64.5,203 66.7,203 68.8,203 
			71,203 73.1,203 75.3,203 77.4,203 79.6,203 81.8,203 83.9,203 86.1,203 88.2,203 90.3,203 92.5,203 94.6,203 96.8,203 99,203 
			101.1,203 103.3,203 105.4,203 107.6,203 109.7,203 111.9,203 114,203 116.2,203 118.3,203 120.5,203 122.6,203 124.8,203 
			126.9,203 129.1,203 131.2,203 133.4,203 135.5,203 137.7,203 139.8,203 142,203 144.1,203 146.3,203 148.4,203 150.6,203 
			152.7,203 154.9,203 157,203 159.2,203 161.3,203 163.5,203 165.6,203 167.8,203 170,203 172.1,203 174.3,203 176.4,203 
			178.5,203 180.7,203 182.8,203 185,203 187.2,203 189.3,203 191.5,203 193.6,203 195.8,203 197.9,203 200.1,203 202.2,203 
			204.4,203 206.5,203 208.7,203 210.8,203 213,203 215.1,203 217.3,203 219.4,203 221.6,203 223.7,203 225.9,203 228,203 
			230.2,203 232.3,203 234.5,203 236.6,203 238.8,203 240.9,203 243.1,203 245.2,203 247.4,203 249.5,203 251.7,203 253.8,203 
			256,203 258.1,203 260.3,203 262.4,203 264.6,203 266.7,203 268.9,203 271.1,203 273.2,203 275.4,203 277.5,203 279.6,203 
			281.8,203 283.9,203 286.1,203 288.3,203 290.4,203 292.6,203 294.7,203 296.9,203 299,203 301.2,203 303.3,203 305.5,203 
			307.6,203 309.8,203 311.9,203 314.1,203 316.2,203 318.4,203 320.5,203 322.7,203 324.8,203 327,203 329.1,203 331.3,203 
			333.4,203 335.6,203 337.7,203 339.9,203 342,203 344.2,203 346.3,203 348.5,203 350.6,203 352.8,203 354.9,203 357.1,203 
			359.3,203 361.4,203 363.6,203 365.7,203 367.8,203 370,203 372.2,203 374.3,203 376.5,203 378.6,203 380.8,203 382.9,203 
			385.1,203 387.2,203 389.4,203 391.5,203 393.7,203 395.8,203 398,203 400.1,203 402.3,203 404.4,203 406.6,203 408.7,203 
			410.9,203 413,203 415.2,203 417.3,203 419.5,203 421.6,203 423.8,203 425.9,203 428.1,203 430.2,203 432.4,203 434.5,203 
			436.7,203 438.8,203 441,203 443.1,203 445.3,203 447.4,203 449.6,203 451.7,203 453.9,203 456,203 456,202.9 456,202.9 		"/>
	</g>
</g>
</svg>
