<?xml version="1.0" encoding="utf-8"?>
<!-- Generator: Adobe Illustrator 23.0.3, SVG Export Plug-In . SVG Version: 6.00 Build 0)  -->
<svg version="1.1" id="Слой_1" xmlns="http://www.w3.org/2000/svg" xmlns:xlink="http://www.w3.org/1999/xlink" x="0px" y="0px"
	 viewBox="0 0 40 40" style="enable-background:new 0 0 40 40;" xml:space="preserve">
<style type="text/css">
	.st0{display:none;}
	.st1{display:inline;fill:#FFFFFF;}
	.st2{fill:#FFFFFF;}
</style>
<g class="st0">
	<path class="st1" d="M29.2,0H10.8C4.9,0,0,4.9,0,10.8v18.3C0,35.1,4.9,40,10.8,40h18.3c6,0,10.8-4.9,10.8-10.8V10.8
		C40,4.9,35.1,0,29.2,0z M20.6,33.6c-0.2,0.1-0.4,0.2-0.6,0.2s-0.4-0.1-0.6-0.2c-0.4-0.4-9.8-8.8-9.8-16.9c0-5.7,4.6-10.4,10.3-10.4
		s10.3,4.7,10.3,10.4C30.3,24.8,21,33.2,20.6,33.6z"/>
	<circle class="st1" cx="20" cy="16.6" r="5.7"/>
</g>
<path class="st2" d="M29.2,0H10.8C4.9,0,0,4.9,0,10.8v18.3C0,35.1,4.9,40,10.8,40h18.3c6,0,10.8-4.9,10.8-10.8V10.8
	C40,4.9,35.1,0,29.2,0z M30.3,30.5c-0.6,0.6-1.3,1.2-1.8,1.8c-0.8,0.9-1.9,1.2-3.1,1.2c-1.8-0.1-3.4-0.7-4.9-1.4
	c-3.5-1.7-6.4-4-8.9-7c-1.8-2.2-3.3-4.6-4.3-7.2c-0.5-1.3-0.8-2.6-0.7-4c0.1-0.9,0.4-1.6,1-2.2c0.7-0.7,1.3-1.3,2-2
	c0.9-0.9,2-0.9,2.9,0c0.5,0.5,1.1,1.1,1.6,1.6c0.5,0.5,1,1,1.6,1.6c0.9,0.9,0.9,2,0,2.9c-0.7,0.7-1.3,1.3-2,2
	c-0.2,0.2-0.2,0.3-0.1,0.5c0.4,1.1,1.1,2,1.8,2.9c1.4,1.8,3.1,3.3,5,4.6c0.4,0.3,0.9,0.5,1.3,0.7c0.2,0.1,0.4,0.1,0.6-0.1
	c0.7-0.7,1.3-1.3,2-2c0.9-0.9,2-0.9,2.9,0c1.1,1.1,2.2,2.1,3.2,3.2C31.2,28.5,31.2,29.6,30.3,30.5z M19.9,14l0.3-2.1
	c2,0.3,3.9,1.2,5.3,2.6c1.4,1.4,2.3,3.1,2.6,5L26,19.9c-0.3-1.5-0.9-2.8-2-3.9C22.8,14.9,21.4,14.2,19.9,14z M31.5,19.5
	c-0.5-2.7-1.8-5.2-3.7-7.2c-2.1-2.1-4.7-3.4-7.6-3.8l0.3-2.1c3.4,0.5,6.4,2,8.8,4.4c2.3,2.3,3.8,5.2,4.3,8.3L31.5,19.5z"/>
</svg>
